PathFileType	4	(X/Y/Z)	28_1_32_p1_0-240_filt_butterworth.trc
DataRate	CameraRate	NumFrames	NumMarkers	Units	OrigDataRate	OrigDataStartFrame	OrigNumFrames
60.0	60.0	5	27	m	60.0	0	240
Frame#	Time	RHip			RKnee			RAnkle			RBigToe			RSmallToe			RHeel			LHip			LKnee			LAnkle			LBigToe			LSmallToe			LHeel			Neck			Head			Nose			RShoulder			RElbow			RWrist			RThumb			RIndex			RPinky			LShoulder			LElbow			LWrist			LThumb			LIndex			LPinky			
		X1	Y1	Z1	X2	Y2	Z2	X3	Y3	Z3	X4	Y4	Z4	X5	Y5	Z5	X6	Y6	Z6	X7	Y7	Z7	X8	Y8	Z8	X9	Y9	Z9	X10	Y10	Z10	X11	Y11	Z11	X12	Y12	Z12	X13	Y13	Z13	X14	Y14	Z14	X15	Y15	Z15	X16	Y16	Z16	X17	Y17	Z17	X18	Y18	Z18	X19	Y19	Z19	X20	Y20	Z20	X21	Y21	Z21	X22	Y22	Z22	X23	Y23	Z23	X24	Y24	Z24	X25	Y25	Z25	X26	Y26	Z26	X27	Y27	Z27	
0	0.0	0.2239116179750956	0.6287394641712264	0.8369538796344032	0.22470513512981644	0.17987223603374064	0.93051189821299	0.20576117182472148	-0.25456227116415264	0.9942042873886918	0.18635608903265566	-0.29141068065625436	0.8475933729160928	0.24973279322602707	-0.2787807197589789	0.8448644390876556	0.19218679668794483	-0.35207274425566737	1.1053363658732847	-0.0032339452340160585	0.6258552921347784	0.8442328691693641	0.021719885703045512	0.18322101492026066	0.9090557331583042	0.01345038292084294	-0.2839348299367309	1.0241181375413335	0.021043066329703267	-0.26423995736389794	0.8073817603757035	-0.03364097775767518	-0.2982039464203541	0.8868475426683877	0.03127566440674019	-0.34645186598208205	1.0764526695161873	0.08737679974940736	1.2791716126034531	0.832511351062529	0.09269449639372859	1.5261591684684834	0.7624673303692481	0.08268577150228255	1.3952240643656575	0.6701826671789134	0.27126125966749925	1.1846334773794922	0.8325545873036833	0.3110275141347046	0.895974958633826	0.8223930400447284	0.13223531648151748	0.7258198592445738	0.6707093423478581	0.08467360321302708	0.6649276900691762	0.643534761999907	0.06386321487395605	0.6364928458064719	0.681871674668623	0.06447864685955747	0.6207144006228253	0.706976654094625	-0.09199765216427779	1.189074160559318	0.8486321615000839	-0.12161499011670404	0.8931523976496136	0.8198941418011312	0.0280818747621061	0.7404770538481479	0.6528761545114414	0.12484067525910827	0.6856361653244154	0.6467157349777459	0.12847657529701667	0.6606016429727813	0.6468023849892046	0.09192215986158046	0.623750140476826	0.6715265712655492	
1	0.0166666666666666	0.22371169119478398	0.6298798306697238	0.8366965571774423	0.22403645280635784	0.18088485629779832	0.928715878515364	0.2059572884754151	-0.25567453475985435	0.9944880210983128	0.18513623247031116	-0.2878742734161753	0.8450914703816965	0.2476614513830346	-0.2760138601814348	0.839615862535894	0.19267375577500065	-0.35151505350289036	1.1059776630988403	-0.0034084016300121797	0.6263362549358804	0.843805150368558	0.02148029986750127	0.1845358999975439	0.9086877356840007	0.012788348766203356	-0.2837977501329594	1.0238921649116153	0.023659594427053735	-0.26702275571352413	0.8166824228975675	-0.03545239094696546	-0.29597847826591145	0.8866203233465354	0.03150474755172076	-0.3474480543472032	1.0773646357542683	0.08738899085598574	1.2791724823530013	0.8325080774883109	0.09263726432197224	1.526165193274031	0.7624002869998866	0.08262572127332111	1.3958739720346673	0.6701092923620895	0.2712683225037799	1.1849703642072007	0.832661085282676	0.3112993973414996	0.8958749381186076	0.8232869461653376	0.13216134521764838	0.7239677649881908	0.6706986927270556	0.08730462501460062	0.6651916522523447	0.6445717767869228	0.0670957963433374	0.6378723917613928	0.6743846892235004	0.06446419134960495	0.6211706622386015	0.7070841004175257	-0.09193235662417616	1.188917614153889	0.8487927466683094	-0.12151199736934637	0.8939197275989262	0.8199626881845274	0.027983606053456875	0.7405315236555109	0.6527699373970852	0.12595417790827365	0.685302022445273	0.642872317207091	0.12944582403475907	0.6638698686348738	0.6412407137457076	0.09185920694067119	0.6240480708521947	0.6710514241632168	
2	0.0333333333333333	0.2235330665576727	0.6308766570452838	0.836471109081668	0.22344414536381954	0.181915827980223	0.9269786715107019	0.20611589497548802	-0.256475214506985	0.9946973323539972	0.18451487039474818	-0.285867098851001	0.8439472674838193	0.2462348870760276	-0.27395237718836235	0.8357826931785035	0.19302364423126728	-0.35096432891829477	1.106306507914366	-0.0035686588856063796	0.6268572714758074	0.8434660793362917	0.02127160251282839	0.18566667825455552	0.9083719045277875	0.012191901581868824	-0.2834431068694927	1.0236187373037802	0.02495956436828902	-0.26796956459408583	0.8211060132071387	-0.036629799131181785	-0.29467993779615564	0.886456238281515	0.031675044298159295	-0.3481615434019266	1.0780540821266733	0.087396944646846	1.2791718858394703	0.832517351347497	0.09260250580809196	1.5261701589040715	0.7623410933541308	0.08259955321301017	1.3960636476272983	0.6700888688268358	0.27128277649910537	1.1850762715665744	0.8327096214079457	0.3114690259510383	0.8958255655701309	0.8237572253248208	0.1321015366495385	0.7228109195937638	0.6706843470119601	0.08871110537008786	0.6655511465621542	0.6435454571694513	0.06924370299742949	0.6392208158186687	0.6674981097876449	0.06447112540346486	0.621410913589855	0.7071073729053647	-0.09189741030760339	1.1888947904543994	0.8488792992791019	-0.12144923940471453	0.8942003487762629	0.8200049072568647	0.027936515503721466	0.7405599958485694	0.6527089119344354	0.12695137847450608	0.685367915729785	0.6396049354257574	0.13025944408266552	0.6660273873325948	0.6374158298552726	0.09195295607306918	0.6242756424529979	0.6691802399352536	
3	0.05	0.22337468878944652	0.6317392532041065	0.8362755258362147	0.22292385583389054	0.18295459541299758	0.9253125851063433	0.20624018042427703	-0.2569941973341915	0.9948391526993644	0.1843580032051872	-0.28506722688939773	0.8438474035507725	0.24534261260709192	-0.2725075292247339	0.8331699014861583	0.19324836774873017	-0.35042951276013856	1.1063609295308046	-0.0037146289407442978	0.627405839721736	0.8432084006182112	0.021091802216727285	0.1866259901375658	0.9081045475324844	0.011658126941417293	-0.28290031130365006	1.0233060957609224	0.02522599295080757	-0.2675021715072786	0.8217098724147543	-0.03729155761011496	-0.2940879226332883	0.8863445237827057	0.03179074028472237	-0.34862019937442534	1.0785413172752245	0.0874013632096842	1.2791705024005076	0.8325357241429308	0.09258559721706858	1.5261740860770558	0.762290549671133	0.0825981028086222	1.395908929397509	0.6701092416960601	0.2713022618669172	1.185007002117419	0.8327122159481872	0.31151036978469837	0.8958306079709545	0.823780866833155	0.13205022700548094	0.7222504788831942	0.6706754237571197	0.08915954525542259	0.6659490974350144	0.6410562189333606	0.07048987875784708	0.6404825625543142	0.6613641080467673	0.06449952065971358	0.6214320896339437	0.7070768477396594	-0.0918847560756547	1.1889604860245673	0.8489061855474607	-0.12141798947022973	0.8941144547421053	0.820024912260072	0.027931259094476094	0.7405676891504268	0.6526823160860861	0.12781779157334458	0.6857092143916528	0.6369063022057817	0.13092355005690348	0.6672764863025081	0.6350315870902188	0.09214806041132723	0.624457432978999	0.6662745891534261	
4	0.0666666666666666	0.2232355026157904	0.6324769290523917	0.8361077979302172	0.22247122724825988	0.18399060292810515	0.9237299272096269	0.20633333392111905	-0.25726137017012035	0.9949204136780346	0.1845316313008487	-0.2851527274600324	0.8444785179108667	0.24487414027831345	-0.27159057473552217	0.8315824579295331	0.1933598320193747	-0.34991954728667907	1.1061789571591008	-0.0038462237353715733	0.6279694576408421	0.8430248587599627	0.020938907556898353	0.18742647609284485	0.9078819725409115	0.011184110418426721	-0.282198774592751	1.022962481326135	0.024741896972007835	-0.2660423639547977	0.8195513416307515	-0.03755602168355578	-0.2939820303995115	0.886274416159487	0.03185602115007653	-0.34885188849287285	1.0788466498417444	0.08740294863219637	1.2791690113737604	0.8325597473774551	0.09258191491388292	1.526176995511435	0.7622494561900464	0.08261220554742961	1.3955256555992586	0.6701582560926695	0.27132441882065683	1.1848183585195402	0.8326808891720959	0.31139739866385724	0.895893832303637	0.8233348600003167	0.13200175251376875	0.7221875986783837	0.6706810415170825	0.08891644564653862	0.6663284293073347	0.6377044778645187	0.07101726754620491	0.641602076544344	0.6561348556865778	0.06454944875692747	0.6212311253282259	0.7070229011019271	-0.09188633678942536	1.1890694974281109	0.8488877716883843	-0.1214095208133132	0.893782239056937	0.8200268164360787	0.02795849280729697	0.740559822284187	0.6526793878146311	0.12853893182032813	0.6862012876445789	0.6347691301192013	0.13144425657364053	0.6678194527811782	0.6337918392228654	0.09238917310799814	0.6246180201299609	0.6626960423895008	
